<svg id="Layer_2" data-name="Layer 2" xmlns="http://www.w3.org/2000/svg" viewBox="0 0 192 192"><defs><style>.cls-1{fill:none;stroke:currentColor;stroke-linecap:round;stroke-linejoin:round;stroke-width:5.00px;}.cls-2{fill:currentColor;}</style></defs><path class="cls-1" d="M127.78,110.69A66,66,0,0,1,142.67,120"></path><path class="cls-1" d="M27.42,149,10.66,140V117.89s15.64,3.15,28.71-.74c16-4.76,36.08-13.56,58.63-13.37a69.31,69.31,0,0,1,17.49,2.41"></path><line class="cls-1" x1="117.3" y1="152" x2="70.06" y2="152"></line><path class="cls-1" d="M66.65,108.49,81.74,120h76.39a20.41,20.41,0,0,1,19.94,16.05L181.56,152H157.47"></path><line class="cls-1" x1="19.11" y1="102.33" x2="31.16" y2="118.76"></line><line class="cls-1" x1="10.66" y1="105.15" x2="28" y2="99.37"></line><circle class="cls-2" cx="42.33" cy="143.78" r="15.78"></circle><circle class="cls-2" cx="144" cy="143.78" r="15.78"></circle><line class="cls-1" x1="70.06" y1="129.46" x2="80.83" y2="129.46"></line></svg>
